<svg viewBox="0 0 13 16" fill="none" xmlns="http://www.w3.org/2000/svg">
<path d="M6.8461 1.18182H5.60836C4.87441 1.18182 4.27752 1.77152 4.27752 2.49616V3.62746H1.30346H0.66356C0.598341 3.62793 0.54541 3.68022 0.54541 3.74465C0.54541 3.80909 0.598341 3.86138 0.66356 3.86138H1.19807L2.2997 13.6491C2.37437 14.3153 2.94243 14.8182 3.62156 14.8182H8.8329C9.51202 14.8182 10.0801 14.3153 10.1548 13.6491L11.2564 3.86138H11.7909C11.8561 3.86138 11.909 3.80909 11.909 3.74465C11.909 3.68022 11.8561 3.62793 11.7909 3.62793H11.1505H8.17646V2.49616C8.17646 1.77152 7.58004 1.18182 6.8461 1.18182ZM4.51382 2.49616C4.51382 1.89992 5.00485 1.41528 5.60789 1.41528H6.84562C7.44866 1.41528 7.93969 1.90039 7.93969 2.49616V3.62746H4.51335V2.49616H4.51382ZM9.92035 13.6229C9.85844 14.1711 9.39104 14.5847 8.8329 14.5847H3.62156C3.06342 14.5847 2.59602 14.1715 2.53411 13.6229L1.43579 3.86138H4.39614H8.05878H11.0191L9.92035 13.6229Z" fill="currentColor" stroke="currentColor"/>
<path d="M4.98924 6.67383C4.92402 6.67383 4.87109 6.72612 4.87109 6.79055V11.673C4.87109 11.7374 4.92402 11.7897 4.98924 11.7897C5.05446 11.7897 5.10739 11.7374 5.10739 11.673V6.79055C5.10739 6.72612 5.05446 6.67383 4.98924 6.67383Z" fill="currentColor" stroke="currentColor"/>
<path d="M7.46483 6.67383C7.39961 6.67383 7.34668 6.72612 7.34668 6.79055V11.673C7.34668 11.7374 7.39961 11.7897 7.46483 11.7897C7.53005 11.7897 7.58298 11.7374 7.58298 11.673V6.79055C7.58298 6.72612 7.52958 6.67383 7.46483 6.67383Z" fill="currentColor" stroke="currentColor"/>
</svg>
